<svg width="55" height="50" viewBox="0 0 55 50" fill="none" xmlns="http://www.w3.org/2000/svg">
<rect width="54.2857" height="50" rx="8" fill="#C026D3"/>
<path d="M11.2245 15.5102H43.0612C43.7375 15.5102 44.2857 14.962 44.2857 14.2857V11.2245C44.2857 10.5482 43.7375 10 43.0612 10H11.2245C10.5482 10 10 10.5482 10 11.2245V14.2857C10 14.962 10.5482 15.5102 11.2245 15.5102ZM11.2245 27.7551H43.0612C43.7375 27.7551 44.2857 27.2069 44.2857 26.5306V23.4694C44.2857 22.7931 43.7375 22.2449 43.0612 22.2449H11.2245C10.5482 22.2449 10 22.7931 10 23.4694V26.5306C10 27.2069 10.5482 27.7551 11.2245 27.7551ZM11.2245 40H43.0612C43.7375 40 44.2857 39.4518 44.2857 38.7755V35.7143C44.2857 35.038 43.7375 34.4898 43.0612 34.4898H11.2245C10.5482 34.4898 10 35.038 10 35.7143V38.7755C10 39.4518 10.5482 40 11.2245 40Z" fill="white"/>
</svg>
